<svg xmlns="http://www.w3.org/2000/svg" version="1.1" xmlns:xlink="http://www.w3.org/1999/xlink" xmlns:svgjs="http://svgjs.dev/svgjs" width="2000" height="1999" viewBox="0 0 2000 1999"><g transform="matrix(1,0,0,1,-0.431486880466764,-0.4312711370263287)"><svg viewBox="0 0 343 343" data-background-color="#0080ff" preserveAspectRatio="xMidYMid meet" height="1999" width="2000" xmlns="http://www.w3.org/2000/svg" xmlns:xlink="http://www.w3.org/1999/xlink"><g id="tight-bounds" transform="matrix(1,0,0,1,0.0740000000000407,0.07400000000001228)"><svg viewBox="0 0 342.85155851775386 342.85155851775386" height="342.85155851775386" width="342.85155851775386"><g><svg></svg></g><g><svg viewBox="0 0 342.85155851775386 342.85155851775386" height="342.85155851775386" width="342.85155851775386"><g><path d="M0 171.426c0-94.676 76.75-171.426 171.426-171.426 94.676 0 171.426 76.75 171.426 171.426 0 94.676-76.75 171.426-171.426 171.426-94.676 0-171.426-76.75-171.426-171.426zM171.426 340.308c93.271 0 168.882-75.611 168.882-168.882 0-93.271-75.611-168.882-168.882-168.883-93.271 0-168.882 75.611-168.883 168.883 0 93.271 75.611 168.882 168.883 168.882z" data-fill-palette-color="tertiary" fill="#ffffff" stroke="transparent"></path><ellipse rx="164.56874808852186" ry="164.56874808852186" cx="171.42577925887693" cy="171.42577925887693" fill="#ffffff" stroke="transparent" stroke-width="0" fill-opacity="1" data-fill-palette-color="tertiary"></ellipse></g><g transform="matrix(1,0,0,1,64.84655864529837,134.50743809114817)"><svg viewBox="0 0 213.1584412271571 73.83668233545751" height="73.83668233545751" width="213.1584412271571"><g><svg viewBox="0 0 213.1584412271571 73.83668233545751" height="73.83668233545751" width="213.1584412271571"><g><svg viewBox="0 0 213.1584412271571 73.83668233545751" height="73.83668233545751" width="213.1584412271571"><g transform="matrix(1,0,0,1,0,45.63403186409705)"><svg viewBox="0 0 213.1584412271571 28.202650471360457" height="28.202650471360457" width="213.1584412271571"><g id="textblocktransform"><svg viewBox="0 0 213.1584412271571 28.202650471360457" height="28.202650471360457" width="213.1584412271571" id="textblock"><g><svg viewBox="0 0 213.1584412271571 28.202650471360457" height="28.202650471360457" width="213.1584412271571"><g transform="matrix(1,0,0,1,0,0)"><svg width="213.1584412271571" viewBox="3.42 -33.15 322.33 42.65" height="28.202650471360457" data-palette-color="#0080ff"><path d="M6.54-1.05L6.54-1.05 6.54 9.5 3.42 9.5 3.42-24.05 5.98-24.05 6.27-22.36Q9.42-24.41 13.18-24.41L13.18-24.41Q17.02-24.41 19.2-21.39 21.39-18.36 21.39-12.04L21.39-12.04Q21.39-5.49 19.17-2.62 16.94 0.24 12.45 0.24L12.45 0.24Q9.16 0.24 6.54-1.05ZM6.54-19.75L6.54-19.75 6.54-3.34Q8.69-2.34 11.3-2.34L11.3-2.34 12.01-2.34Q15.33-2.34 16.8-4.58 18.26-6.81 18.26-11.99L18.26-11.99Q18.26-17.07 16.96-19.46 15.65-21.85 12.79-21.85L12.79-21.85Q10.18-21.85 6.54-19.75ZM41.48-3.98L41.48-3.98 41.48-24.05 44.6-24.05 44.6 0 42.04 0 41.82-1.56Q39.5-0.46 37.88-0.11 36.25 0.24 34.27 0.24L34.27 0.24Q30.56 0.24 28.83-1.71 27.1-3.66 27.1-7.84L27.1-7.84 27.1-24.05 30.22-24.05 30.22-7.71Q30.22-4.79 31.19-3.56 32.15-2.34 34.59-2.34L34.59-2.34Q35.81-2.34 36.58-2.4 37.35-2.47 38.73-2.84 40.11-3.22 41.48-3.98ZM54.58-24.05L54.71-21.95Q56.15-22.92 58.36-23.63 60.57-24.34 62.42-24.41L62.42-24.41 62.42-21.8Q60.3-21.8 58.11-21.15 55.93-20.51 54.73-19.63L54.73-19.63 54.73 0 51.61 0 51.61-24.05 54.58-24.05ZM82.24-4.15L82.24-4.15 83.42-1.93Q80.44 0.24 76.31 0.24L76.31 0.24Q72.04 0.24 69.3-2.95 66.57-6.15 66.57-12.08L66.57-12.08Q66.57-24.41 76.04-24.41L76.04-24.41Q79.36-24.41 82.46-22.95L82.46-22.95 82.46-16.65 79.97-16.41 79.97-21.29Q78.36-21.92 75.99-21.92L75.99-21.92Q74.19-21.92 72.93-21.22 71.67-20.51 70.98-19.14 70.28-17.77 69.99-16.05 69.69-14.33 69.69-12.04L69.69-12.04Q69.69-7.37 71.59-4.83 73.48-2.29 76.65-2.29L76.65-2.29Q79.51-2.29 82.24-4.15ZM91.57-19.53L91.57-19.53 91.57 0 88.44 0 88.44-33.15 91.57-33.15 91.57-22.24Q95.5-24.41 98.87-24.41L98.87-24.41Q102.31-24.41 103.97-22.45 105.63-20.48 105.63-16.19L105.63-16.19 105.63 0 102.5 0 102.5-16.33Q102.5-19.29 101.65-20.57 100.8-21.85 98.67-21.85L98.67-21.85Q95.86-21.85 91.57-19.53ZM114.34-6.79L114.34-6.79Q114.34-2.25 119.62-2.25L119.62-2.25Q121.18-2.25 122.8-2.71 124.43-3.17 125.48-3.86L125.48-3.86 125.48-11.55 124.11-11.55Q122.94-11.55 121.96-11.49 120.98-11.43 119.79-11.28 118.59-11.13 117.69-10.79 116.78-10.45 115.99-9.95 115.2-9.45 114.77-8.64 114.34-7.84 114.34-6.79ZM113.42-20.58L112.8-23Q117.13-24.41 120.32-24.41L120.32-24.41Q122.13-24.41 123.57-23.91 125.01-23.41 126.15-22.35 127.28-21.29 127.9-19.45 128.53-17.6 128.53-15.06L128.53-15.06 128.53 0 126.28 0 125.79-1.61Q124.91-0.9 122.96-0.33 121.01 0.24 119.13 0.24L119.13 0.24Q115.61 0.24 113.51-1.59 111.41-3.42 111.41-6.93L111.41-6.93Q111.41-8.06 111.77-9.02 112.12-9.99 112.99-10.89 113.85-11.79 115.19-12.44 116.52-13.09 118.59-13.46 120.67-13.84 123.33-13.84L123.33-13.84 125.48-13.84 125.48-14.62Q125.45-18.63 124.07-20.24 122.69-21.85 120.18-21.85L120.18-21.85Q119.81-21.85 119.38-21.81 118.96-21.78 118.64-21.74 118.32-21.7 117.77-21.59 117.22-21.48 116.97-21.45 116.71-21.41 116.05-21.25 115.39-21.09 115.22-21.04 115.05-21 114.28-20.8 113.51-20.61 113.42-20.58L113.42-20.58ZM134.68-1.68L135.68-4.08Q136.9-3.39 138.84-2.87 140.78-2.34 142.56-2.34L142.56-2.34Q144.81-2.34 146.19-3.31 147.57-4.27 147.57-6.47L147.57-6.47Q147.57-8.18 146.79-9.02 146.01-9.86 144.37-10.38L144.37-10.38 140.71-11.52Q139.24-11.99 138.3-12.44 137.36-12.89 136.56-13.61 135.75-14.33 135.39-15.39 135.02-16.46 135.02-17.94L135.02-17.94Q135.02-21.22 137.27-22.81 139.51-24.41 142.93-24.41 146.35-24.41 149.42-23L149.42-23 148.5-20.65Q145.98-21.85 143.15-21.85L143.15-21.85Q140.88-21.85 139.44-20.89 138-19.92 138-17.82L138-17.82Q138-16.26 138.79-15.63 139.58-14.99 141.64-14.33L141.64-14.33 145.22-13.18Q147.2-12.55 148.31-11.8 149.42-11.06 150.02-9.8 150.62-8.54 150.62-6.62L150.62-6.62Q150.62-4.79 149.99-3.42 149.35-2.05 148.21-1.27 147.08-0.49 145.71-0.12 144.35 0.24 142.71 0.24L142.71 0.24Q138.66 0.24 134.68-1.68L134.68-1.68ZM164.88-21.85L164.88-21.85Q161.8-21.85 160.16-19.71 158.53-17.58 158.23-13.65L158.23-13.65 170.61-13.65 170.61-14.87Q170.61-18.07 169.06-19.96 167.51-21.85 164.88-21.85ZM165.29-2.34L165.29-2.34Q169.05-2.34 172.13-4.3L172.13-4.3 173.08-1.83Q171.42-0.81 169.37-0.28 167.32 0.24 165.46 0.24L165.46 0.24Q160.53 0.24 157.82-2.73 155.11-5.71 155.11-12.11L155.11-12.11Q155.11-18.24 157.75-21.33 160.38-24.41 164.85-24.41L164.85-24.41Q168.88-24.41 171.2-21.78 173.52-19.14 173.52-14.75L173.52-14.75Q173.52-13.75 173.32-11.45L173.32-11.45 158.23-11.45Q158.26-9.28 158.67-7.63 159.09-5.98 159.72-4.99 160.36-4 161.3-3.39 162.24-2.78 163.19-2.56 164.14-2.34 165.29-2.34ZM205.25 5.74L205.25 5.74Q209.21 5.74 211.18 4.39 213.16 3.05 213.16 1.2L213.16 1.2Q213.16-0.2 212.44-0.89 211.72-1.59 209.57-1.59L209.57-1.59 200.32-1.59Q198.54 0.1 198.54 1.93L198.54 1.93Q198.54 2.42 198.6 2.77 198.66 3.13 198.85 3.61 199.05 4.1 199.5 4.44 199.95 4.79 200.65 5.1 201.34 5.42 202.53 5.58 203.71 5.74 205.25 5.74ZM210.65-23.85L210.65-23.85 217.65-23.85 217.65-21.56 212.21-21.56Q213.48-20.61 214.16-19.21 214.85-17.82 214.85-16.46L214.85-16.46Q214.85-13.13 212.36-11.17 209.87-9.2 205.81-9.2L205.81-9.2Q203.03-9.2 200.78-10.11L200.78-10.11Q199.17-7.5 199.17-6.2L199.17-6.2Q199.17-5.62 199.37-5.07 199.56-4.52 199.76-4.27L199.76-4.27 199.93-4.03 209.18-4.03Q213.04-4.03 214.56-2.83 216.09-1.64 216.09 1L216.09 1Q216.09 2 215.79 2.95 215.48 3.91 214.7 4.9 213.92 5.88 212.72 6.63 211.53 7.37 209.56 7.84 207.59 8.3 205.1 8.3L205.1 8.3Q202.79 8.3 200.99 7.87 199.2 7.45 198.17 6.82 197.15 6.2 196.5 5.35 195.85 4.49 195.63 3.76 195.41 3.03 195.41 2.27L195.41 2.27Q195.41 0.9 196.33-0.46 197.24-1.83 198.12-2.34L198.12-2.34Q197.32-2.88 196.85-3.86 196.39-4.83 196.39-5.79L196.39-5.79Q196.39-7.08 196.95-8.23 197.51-9.38 198.9-11.35L198.9-11.35Q196.19-13.62 196.19-16.8L196.19-16.8Q196.19-20.63 198.84-22.52 201.49-24.41 205.69-24.41L205.69-24.41Q206.79-24.41 208.25-24.13 209.72-23.85 210.65-23.85ZM205.84-22.09L205.84-22.09Q202.47-22.09 200.89-20.65 199.32-19.21 199.32-16.82L199.32-16.82Q199.32-14.28 200.98-12.94 202.64-11.6 205.59-11.6L205.59-11.6Q208.72-11.6 210.35-12.84 211.99-14.09 211.99-16.55L211.99-16.55Q211.99-18.95 210.43-20.52 208.86-22.09 205.84-22.09ZM225.73-24.05L225.85-21.95Q227.29-22.92 229.5-23.63 231.71-24.34 233.57-24.41L233.57-24.41 233.57-21.8Q231.44-21.8 229.26-21.15 227.07-20.51 225.88-19.63L225.88-19.63 225.88 0 222.75 0 222.75-24.05 225.73-24.05ZM254.16-2.97Q251.85 0.24 247.09 0.24 242.33 0.24 240.02-2.97 237.72-6.18 237.72-12.08L237.72-12.08Q237.72-18.26 239.97-21.34 242.23-24.41 247.09-24.41 251.95-24.41 254.21-21.34 256.47-18.26 256.47-12.08L256.47-12.08Q256.47-6.18 254.16-2.97ZM249.58-21.37Q248.51-21.85 247.09-21.85 245.68-21.85 244.6-21.37 243.53-20.9 242.82-20.07 242.11-19.24 241.66-17.99 241.21-16.75 241.02-15.31 240.84-13.87 240.84-12.08L240.84-12.08Q240.84-9.79 241.13-8.09 241.43-6.4 242.12-5.05 242.82-3.71 244.06-3.03 245.31-2.34 247.09-2.34 248.87-2.34 250.12-3.03 251.36-3.71 252.06-5.05 252.76-6.4 253.05-8.09 253.34-9.79 253.34-12.08L253.34-12.08Q253.34-13.87 253.16-15.31 252.98-16.75 252.52-17.99 252.07-19.24 251.36-20.07 250.66-20.9 249.58-21.37ZM276.61-3.98L276.61-3.98 276.61-24.05 279.73-24.05 279.73 0 277.17 0 276.95-1.56Q274.63-0.46 273-0.11 271.38 0.24 269.4 0.24L269.4 0.24Q265.69 0.24 263.96-1.71 262.23-3.66 262.23-7.84L262.23-7.84 262.23-24.05 265.35-24.05 265.35-7.71Q265.35-4.79 266.32-3.56 267.28-2.34 269.72-2.34L269.72-2.34Q270.94-2.34 271.71-2.4 272.48-2.47 273.86-2.84 275.24-3.22 276.61-3.98ZM289.71-1.05L289.71-1.05 289.71 9.5 286.59 9.5 286.59-24.05 289.15-24.05 289.45-22.36Q292.59-24.41 296.35-24.41L296.35-24.41Q300.19-24.41 302.37-21.39 304.56-18.36 304.56-12.04L304.56-12.04Q304.56-5.49 302.34-2.62 300.11 0.24 295.62 0.24L295.62 0.24Q292.33 0.24 289.71-1.05ZM289.71-19.75L289.71-19.75 289.71-3.34Q291.86-2.34 294.47-2.34L294.47-2.34 295.18-2.34Q298.5-2.34 299.97-4.58 301.43-6.81 301.43-11.99L301.43-11.99Q301.43-17.07 300.13-19.46 298.82-21.85 295.96-21.85L295.96-21.85Q293.35-21.85 289.71-19.75ZM309.8-1.68L310.8-4.08Q312.03-3.39 313.97-2.87 315.91-2.34 317.69-2.34L317.69-2.34Q319.94-2.34 321.32-3.31 322.69-4.27 322.69-6.47L322.69-6.47Q322.69-8.18 321.91-9.02 321.13-9.86 319.5-10.38L319.5-10.38 315.83-11.52Q314.37-11.99 313.43-12.44 312.49-12.89 311.68-13.61 310.88-14.33 310.51-15.39 310.15-16.46 310.15-17.94L310.15-17.94Q310.15-21.22 312.39-22.81 314.64-24.41 318.06-24.41 321.47-24.41 324.55-23L324.55-23 323.62-20.65Q321.11-21.85 318.28-21.85L318.28-21.85Q316.01-21.85 314.56-20.89 313.12-19.92 313.12-17.82L313.12-17.82Q313.12-16.26 313.92-15.63 314.71-14.99 316.76-14.33L316.76-14.33 320.35-13.18Q322.33-12.55 323.44-11.8 324.55-11.06 325.15-9.8 325.75-8.54 325.75-6.62L325.75-6.62Q325.75-4.79 325.11-3.42 324.48-2.05 323.34-1.27 322.21-0.49 320.84-0.12 319.47 0.24 317.84 0.24L317.84 0.24Q313.78 0.24 309.8-1.68L309.8-1.68Z" opacity="1" transform="matrix(1,0,0,1,0,0)" fill="#0080ff" class="wordmark-text-0" data-fill-palette-color="quaternary" id="text-0"></path></svg></g></svg></g></svg></g></svg></g><g transform="matrix(1,0,0,1,82.59546999159578,0)"><svg viewBox="0 0 47.96750124396555 38.976062951420154" height="38.976062951420154" width="47.96750124396555"><g><svg xmlns="http://www.w3.org/2000/svg" xmlns:xlink="http://www.w3.org/1999/xlink" version="1.1" x="0" y="0" viewBox="5.14592779588848 14 89.85400187002634 73.01100000000004" enable-background="new 0 0 100 100" xml:space="preserve" height="38.976062951420154" width="47.96750124396555" class="icon-icon-0" data-fill-palette-color="quaternary" id="icon-0"><g fill="#0080ff" data-fill-palette-color="quaternary"><path d="M65.438 48.829c-0.271-1.061-1.39-2.032-2.485-2.159 0 0-2.793-0.323-3.975-2.503-1.183-2.183 0.086-4.671 0.086-4.671 0.497-0.978 0.324-2.461-0.387-3.298 0 0-0.584-0.69-1.662-1.711-1.074-1.021-1.795-1.569-1.795-1.569-0.498-0.381-1.203-0.579-1.893-0.579-0.521 0-1.033 0.112-1.445 0.342 0 0-1.263 0.705-2.807 0.705-0.607 0-1.257-0.108-1.891-0.411-2.25-1.075-2.697-3.829-2.697-3.829-0.176-1.08-1.203-2.146-2.283-2.369l-4.725-0.634-0.14-0.004c-1.067 0-2.259 0.735-2.7 1.688 0 0-1.174 2.528-3.627 2.971-0.248 0.045-0.492 0.065-0.729 0.065-2.11 0-3.722-1.592-3.722-1.592-0.523-0.518-1.355-0.809-2.149-0.809-0.39 0-0.771 0.07-1.102 0.217l-4.198 2.251c-0.932 0.585-1.517 1.942-1.299 3.016 0 0 0.552 2.73-1.173 4.52-1.167 1.21-2.815 1.406-3.759 1.406-0.451 0-0.739-0.044-0.739-0.044-0.116-0.018-0.236-0.026-0.357-0.026-1.011 0-2.132 0.602-2.62 1.448l-2.08 4.261c-0.406 1.018-0.074 2.457 0.738 3.198 0 0 2.07 1.889 1.734 4.344-0.336 2.451-2.829 3.725-2.829 3.725-0.981 0.501-1.688 1.801-1.569 2.889l0.848 4.658c0.273 1.061 1.391 2.031 2.486 2.157 0 0 2.793 0.322 3.973 2.503 1.182 2.181-0.084 4.668-0.084 4.668-0.498 0.977-0.324 2.462 0.387 3.299 0 0 0.584 0.689 1.66 1.712 1.075 1.02 1.796 1.568 1.796 1.568 0.499 0.381 1.204 0.578 1.896 0.578 0.519 0 1.031-0.112 1.443-0.341 0 0 1.261-0.704 2.805-0.704 0.606 0 1.258 0.109 1.893 0.412 2.248 1.073 2.696 3.827 2.696 3.827 0.177 1.08 1.204 2.146 2.284 2.369l4.725 0.634 0.14 0.004c1.067 0 2.259-0.735 2.7-1.688 0 0 1.172-2.527 3.625-2.967 0.248-0.045 0.492-0.065 0.729-0.065 2.109 0 3.722 1.59 3.722 1.59 0.524 0.517 1.354 0.807 2.148 0.807 0.391 0 0.771-0.069 1.104-0.217l4.196-2.25c0.933-0.585 1.519-1.941 1.301-3.015 0 0-0.553-2.731 1.172-4.52 1.168-1.211 2.817-1.407 3.761-1.407 0.45 0 0.739 0.045 0.739 0.045 0.117 0.018 0.236 0.026 0.357 0.026 1.011 0 2.132-0.602 2.621-1.448l2.079-4.26c0.405-1.019 0.073-2.457-0.738-3.198 0 0-2.07-1.889-1.735-4.345 0.337-2.451 2.831-3.726 2.831-3.726 0.981-0.5 1.688-1.8 1.569-2.888L65.438 48.829zM63.243 53.77c-0.69 0.374-3.836 2.267-4.338 5.928-0.5 3.663 2.029 6.32 2.598 6.865l0.014 0.055-1.815 3.72-0.037 0.022c-0.192-0.025-0.585-0.066-1.102-0.066-2.38 0-4.487 0.827-5.933 2.328-2.572 2.665-2.107 6.282-1.97 7.061l-0.021 0.051-3.664 1.964-0.055-0.012c-0.495-0.463-2.726-2.38-5.762-2.38-0.424 0-0.852 0.038-1.265 0.112-3.661 0.657-5.428 3.857-5.773 4.559l-0.052 0.032-4.127-0.554-0.035-0.039c-0.146-0.775-0.99-4.327-4.342-5.929-0.982-0.469-2.059-0.707-3.197-0.707-2.078 0-3.731 0.794-4.199 1.043l-0.049 0.001-0.13-0.013c-0.19-0.151-0.739-0.601-1.481-1.305-0.748-0.711-1.227-1.238-1.383-1.413l-0.02-0.175c0.32-0.665 1.788-4.065 0.01-7.347-1.761-3.253-5.376-3.931-6.163-4.04l-0.039-0.032L8.173 59.43l0.029-0.05c0.689-0.374 3.834-2.268 4.336-5.927 0.501-3.663-2.028-6.32-2.598-6.865l-0.014-0.054 1.816-3.722 0.037-0.022c0.193 0.025 0.584 0.066 1.102 0.066 2.379 0 4.486-0.827 5.934-2.329 2.57-2.666 2.105-6.282 1.968-7.06l0.021-0.052 3.663-1.964 0.053 0.012c0.495 0.463 2.727 2.383 5.764 2.383 0.425 0 0.853-0.038 1.268-0.112 3.659-0.66 5.427-3.86 5.773-4.561l0.052-0.033 4.127 0.554 0.033 0.037c0.147 0.776 0.988 4.33 4.342 5.933 0.982 0.469 2.059 0.707 3.197 0.707 2.078 0 3.732-0.795 4.201-1.046l0.051-0.002 0.127 0.014c0.188 0.149 0.737 0.6 1.483 1.308 0.747 0.71 1.226 1.235 1.382 1.411l0.02 0.175c-0.322 0.667-1.791 4.065-0.012 7.349 1.762 3.25 5.375 3.931 6.165 4.041l0.038 0.032 0.742 4.067L63.243 53.77z" fill="#0080ff" data-fill-palette-color="quaternary"></path><path d="M35.726 42.384c-3.768 0-7.529 1.467-10.338 4.382-5.461 5.662-5.259 14.646 0.449 20.063 2.77 2.63 6.328 3.937 9.883 3.937 3.768 0 7.529-1.469 10.338-4.382 5.461-5.663 5.258-14.646-0.449-20.063C42.838 43.689 39.278 42.384 35.726 42.384zM43.884 64.32c-2.151 2.23-5.05 3.459-8.164 3.459-2.921 0-5.691-1.104-7.805-3.107-2.18-2.068-3.417-4.856-3.483-7.849-0.067-2.993 1.044-5.832 3.13-7.995 2.15-2.23 5.051-3.46 8.164-3.46 2.92 0 5.691 1.104 7.804 3.108 2.18 2.068 3.417 4.855 3.484 7.849C47.081 59.317 45.97 62.157 43.884 64.32z" fill="#0080ff" data-fill-palette-color="quaternary"></path><path d="M94.208 31.523c0 0-2.177-1.295-2.624-3.089-0.45-1.795 0.863-3.949 0.863-3.949 0.285-0.468 0.28-1.23-0.012-1.695l-2.104-2.822c-0.291-0.335-0.825-0.55-1.303-0.55-0.113 0-0.223 0.013-0.325 0.038 0 0-0.776 0.193-1.738 0.193-0.752 0-1.618-0.119-2.317-0.537-1.6-0.955-2.203-3.397-2.203-3.397-0.132-0.533-0.68-1.066-1.217-1.188l-3.502-0.524L77.642 14c-0.533 0-1.162 0.339-1.431 0.784 0 0-1.304 2.157-3.112 2.604-0.266 0.064-0.538 0.093-0.811 0.093-1.588 0-3.17-0.949-3.17-0.949-0.232-0.139-0.537-0.209-0.842-0.209-0.314 0-0.629 0.074-0.865 0.221l-2.848 2.09c-0.418 0.356-0.649 1.084-0.516 1.614 0 0 0.617 2.438-0.345 4.022-0.964 1.584-3.424 2.187-3.424 2.187-0.536 0.131-1.073 0.674-1.196 1.208l-0.528 3.473c-0.039 0.545 0.315 1.223 0.788 1.504 0 0 2.174 1.294 2.621 3.088 0.451 1.794-0.863 3.946-0.863 3.946-0.285 0.469-0.279 1.231 0.013 1.694l2.105 2.824c0.29 0.335 0.825 0.55 1.302 0.55 0.113 0 0.223-0.012 0.324-0.037 0 0 0.775-0.192 1.738-0.192 0.752 0 1.619 0.117 2.318 0.535 1.597 0.955 2.203 3.399 2.203 3.399 0.132 0.531 0.68 1.065 1.218 1.187l3.499 0.523 0.084 0.003c0.533 0 1.162-0.34 1.434-0.786 0 0 1.304-2.153 3.111-2.6 0.266-0.065 0.537-0.094 0.81-0.094 1.589 0 3.17 0.951 3.17 0.951 0.231 0.139 0.536 0.208 0.841 0.208 0.314 0 0.63-0.073 0.867-0.222l2.846-2.085c0.418-0.358 0.65-1.084 0.517-1.614 0 0-0.614-2.443 0.345-4.028 0.963-1.585 3.428-2.186 3.428-2.186 0.534-0.131 1.072-0.674 1.195-1.207l0.529-3.473C95.036 32.482 94.681 31.806 94.208 31.523zM91.641 35.087c-1.22 0.435-3.238 1.398-4.374 3.269-1.131 1.867-1.045 4.089-0.863 5.359l-1.259 0.923c-0.884-0.413-2.321-0.939-3.885-0.939-0.532 0-1.05 0.062-1.535 0.182-2.134 0.526-3.657 2.158-4.433 3.182l-1.547-0.231c-0.438-1.209-1.411-3.211-3.293-4.339-1.069-0.638-2.371-0.961-3.869-0.961-0.582 0-1.11 0.049-1.528 0.107l-0.935-1.251c0.554-1.163 1.295-3.262 0.764-5.374-0.527-2.118-2.172-3.63-3.207-4.4l0.233-1.536c1.218-0.436 3.234-1.398 4.37-3.266 1.133-1.867 1.048-4.087 0.865-5.358l1.258-0.925c0.885 0.412 2.321 0.939 3.885 0.939 0.531 0 1.048-0.062 1.537-0.183 2.131-0.526 3.652-2.156 4.432-3.184l1.545 0.231c0.438 1.21 1.409 3.211 3.29 4.335 1.071 0.642 2.374 0.967 3.873 0.967 0.583 0 1.111-0.051 1.53-0.108l0.933 1.249c-0.552 1.163-1.294 3.263-0.765 5.377 0.528 2.118 2.176 3.631 3.211 4.402L91.641 35.087z" fill="#0080ff" data-fill-palette-color="quaternary"></path><path d="M80.45 26.026c-1.148-0.686-2.415-1.012-3.666-1.012-2.415 0-4.771 1.219-6.111 3.423-2.026 3.342-0.94 7.684 2.43 9.697 1.148 0.688 2.415 1.015 3.666 1.015 2.414 0 4.771-1.22 6.109-3.423C84.905 32.386 83.819 28.043 80.45 26.026zM80.302 34.186c-0.754 1.239-2.074 1.979-3.533 1.979-0.742 0-1.473-0.203-2.115-0.586-1.941-1.162-2.572-3.676-1.403-5.603 0.753-1.237 2.073-1.978 3.534-1.978 0.742 0 1.475 0.202 2.111 0.583C80.84 29.746 81.47 32.26 80.302 34.186z" fill="#0080ff" data-fill-palette-color="quaternary"></path></g></svg></g></svg></g><g></g></svg></g></svg></g></svg></g></svg></g><defs></defs></svg><rect width="342.85155851775386" height="342.85155851775386" fill="none" stroke="none" visibility="hidden"></rect></g></svg></g></svg>